<svg xmlns="http://www.w3.org/2000/svg" viewBox="0 0 24 24">
    <defs>
        <style>.a{fill:#fff;}</style>
    </defs>
    <circle class="a" cx="12" cy="12" r="6"/>
    <path class="a" d="M12,4a1,1,0,0,1-1-1V1a1,1,0,0,1,2,0V3A1,1,0,0,1,12,4Z"/>
    <path class="a" d="M12,24a1,1,0,0,1-1-1V21a1,1,0,0,1,2,0v2A1,1,0,0,1,12,24Z"/>
    <path class="a" d="M5.6,6.6a.9967.9967,0,0,1-.707-.293l-1.4-1.4a1,1,0,0,1,1.414-1.414l1.4,1.4A1,1,0,0,1,5.6,6.6Z"/>
    <path class="a" d="M19.8,20.8a.9967.9967,0,0,1-.707-.293l-1.3994-1.3994a1,1,0,1,1,1.414-1.414l1.3994,1.3994A1,1,0,0,1,19.8,20.8Z"/>
    <path class="a" d="M3,13H1a1,1,0,0,1,0-2H3a1,1,0,0,1,0,2Z"/>
    <path class="a" d="M23,13H21a1,1,0,0,1,0-2h2a1,1,0,0,1,0,2Z"/>
    <path class="a" d="M4.2,20.8a1,1,0,0,1-.707-1.707l1.4-1.3994a1,1,0,1,1,1.414,1.414l-1.4,1.3994A.9967.9967,0,0,1,4.2,20.8Z"/>
    <path class="a" d="M18.4,6.6a1,1,0,0,1-.707-1.707l1.3994-1.4a1,1,0,0,1,1.414,1.414l-1.3994,1.4A.9967.9967,0,0,1,18.4,6.6Z"/>
</svg>